<svg width="25" height="33" viewBox="0 0 25 33" fill="none" xmlns="http://www.w3.org/2000/svg">
<path d="M20 7.99999L12.5 1L5 7.99999" stroke="white" stroke-miterlimit="10" stroke-linecap="round" stroke-linejoin="round"/>
<path d="M7.00003 9.00012V16.0001H11V12.0001H14V16.0001H18V9.00012" stroke="white" stroke-miterlimit="10" stroke-linecap="round" stroke-linejoin="round"/>
<path d="M0.670391 28.97H3.48039V26.78C3.48039 26.4267 3.41372 26.1867 3.28039 26.06C3.15372 25.9267 2.92706 25.86 2.60039 25.86H0.780391V24.83H2.60039C3.08039 24.83 3.45706 24.89 3.73039 25.01C4.00372 25.1233 4.20039 25.3233 4.32039 25.61C4.44706 25.89 4.51039 26.28 4.51039 26.78V28.97H5.06039V30H0.670391V28.97ZM6.49109 30V25.86H5.64109V24.83H7.52109V30H6.49109ZM11.2434 26.78C11.2434 26.4267 11.1767 26.1867 11.0434 26.06C10.91 25.9267 10.68 25.86 10.3534 25.86H8.46336V24.83H10.3534C10.8334 24.83 11.21 24.89 11.4834 25.01C11.7567 25.1233 11.9567 25.3233 12.0834 25.61C12.21 25.89 12.2734 26.28 12.2734 26.78V30H11.2434V26.78ZM15.6909 29.88L15.6809 29.7L16.9509 25.86H13.4209V24.83H18.1009V25.32L16.7509 29.88H15.6909ZM13.6909 31.43V27.06H14.7209V31.43H13.6909ZM21.9454 30.05C21.7254 30.05 21.5321 30.0367 21.3654 30.01L21.4354 28.98C21.6087 29.0067 21.7487 29.02 21.8554 29.02C22.3087 29.0133 22.6354 28.8467 22.8354 28.52C23.0421 28.1933 23.1454 27.7867 23.1454 27.3C23.1454 26.8133 23.0321 26.44 22.8054 26.18C22.5854 25.9133 22.2854 25.78 21.9054 25.78C21.1187 25.78 20.6487 26.35 20.4954 27.49L20.1654 30H19.0954L19.6154 26.64C19.4354 26.0467 19.1854 25.4967 18.8654 24.99V24.83H19.9454C20.1187 25.11 20.2721 25.43 20.4054 25.79C20.5587 25.47 20.7821 25.2167 21.0754 25.03C21.3754 24.8433 21.7221 24.75 22.1154 24.75C22.7287 24.75 23.2221 24.96 23.5954 25.38C23.9754 25.8 24.1687 26.42 24.1754 27.24C24.1754 28.02 23.9987 28.6833 23.6454 29.23C23.2987 29.7767 22.7321 30.05 21.9454 30.05Z" fill="white"/>
</svg>
