<svg width="162" height="72" viewBox="0 0 162 72" fill="none" xmlns="http://www.w3.org/2000/svg">
<path d="M13.9282 55.8873C19.0247 55.8873 22.2263 54.2538 24.4478 52.6857C25.3626 52.0323 25.6239 51.3789 25.6239 50.7255C25.6239 49.6801 24.7745 48.896 23.7944 48.896C23.4024 48.896 23.0757 48.9613 22.4876 49.3534C20.3968 50.7908 18.2406 52.0976 14.5816 52.0976C9.68115 52.0976 7.13292 49.5494 7.13292 43.4729C7.13292 35.1094 10.7919 28.2488 18.8286 28.2488C23.0104 28.2488 24.5785 30.1436 25.6239 31.3198C26.1466 31.9078 26.5387 32.1038 27.1921 32.1038C28.2375 32.1038 29.0216 31.2544 29.0216 30.209C29.0216 29.9476 28.9562 29.5556 28.7602 29.2289C27.9761 27.8568 25.2972 24.4591 19.5474 24.4591C8.83174 24.4591 2.88586 32.4959 2.88586 43.9956C2.88586 52.2283 6.80622 55.8873 13.9282 55.8873Z" fill="white"/>
<path d="M37.1379 49.6801L44.1292 10.6072C44.3252 9.43111 43.6065 8.51636 42.3651 8.51636H37.3339C36.0925 8.51636 34.9817 9.49645 34.9817 10.8032C34.9817 11.718 35.6351 12.4367 36.6152 12.4367H39.6208L32.8909 49.9414C32.3028 53.2084 33.8056 55.5606 37.0072 55.5606C40.1435 55.5606 41.2543 54.5152 41.2543 53.2084C41.2543 52.2283 40.6662 51.5096 39.8168 51.5096C39.1634 51.5096 38.8367 51.6403 38.4447 51.6403C37.3993 51.6403 36.8766 51.0522 37.1379 49.6801Z" fill="white"/>
<path d="M52.1782 44.1916C52.1782 36.0895 55.5105 28.2488 64.1353 28.2488C69.1011 28.2488 71.8453 30.6664 71.8453 36.1549C71.8453 44.2569 68.513 52.0976 59.8882 52.0976C54.9224 52.0976 52.1782 49.6801 52.1782 44.1916ZM76.0924 35.6321C76.0924 28.0528 71.9106 24.4591 64.7887 24.4591C52.7662 24.4591 47.9311 34.5214 47.9311 44.7143C47.9311 52.2937 52.1129 55.8873 59.2348 55.8873C71.2573 55.8873 76.0924 45.8251 76.0924 35.6321Z" fill="white"/>
<path d="M99.467 55.0379C100.708 55.0379 101.623 54.1885 101.819 53.2084L102.669 48.3733C102.865 47.1972 102.081 46.2824 100.904 46.2824C99.663 46.2824 98.6829 47.1972 98.4869 48.3733L98.0295 50.9869H85.2883L105.282 28.6408C105.609 28.2488 106.001 27.7261 106.001 27.0074C106.001 26.0926 105.347 25.3739 104.367 25.3739H86.4644C85.1577 25.3739 84.3083 26.2233 84.1122 27.3341L83.3282 31.6465C83.1321 32.8226 83.7855 33.7373 85.027 33.7373C86.2684 33.7373 87.2485 32.8226 87.4445 31.6465L87.9019 29.2942H99.663L79.4078 51.7709C78.9504 52.2936 78.6891 52.751 78.6891 53.4044C78.6891 54.3192 79.3425 55.0379 80.3226 55.0379H99.467Z" fill="white"/>
<path d="M120.749 55.8873C125.453 55.8873 129.047 54.5152 131.66 52.359C132.118 51.967 132.64 51.5096 132.64 50.6602C132.64 49.6147 131.791 48.8307 130.746 48.8307C130.288 48.8307 129.961 48.9613 129.504 49.288C127.479 50.7255 124.865 52.0323 121.533 52.0323C116.306 52.0323 113.496 50.1375 113.496 44.1916C113.496 43.7995 113.496 43.1462 113.692 42.1661C129.308 42.1661 136.103 38.5071 136.103 31.5811C136.103 27.7914 133.032 24.4591 126.499 24.4591C115.848 24.4591 109.314 32.7572 109.314 44.7143C109.314 52.2937 113.561 55.8873 120.749 55.8873ZM125.845 28.2488C130.223 28.2488 131.922 30.1436 131.922 32.0385C131.922 36.2202 126.237 38.7684 114.149 38.7684C115.195 33.0839 119.377 28.2488 125.845 28.2488Z" fill="white"/>
<path d="M150.785 55.0379C152.027 55.0379 153.138 54.0578 153.138 52.751C153.138 51.8363 152.484 51.1175 151.504 51.1175H146.473L148.694 38.8338C149.74 32.8226 153.53 28.6408 159.541 28.6408C160.782 28.6408 161.958 27.5954 161.958 26.354C161.958 25.3739 161.24 24.5898 160.26 24.5898C155.751 24.5898 152.092 26.8113 150.263 29.817L150.72 27.4647C150.916 26.354 150.263 25.3739 148.956 25.3739H144.251C143.01 25.3739 141.899 26.354 141.899 27.6608C141.899 28.5755 142.553 29.2942 143.533 29.2942H146.212L142.291 51.1175H140.2C138.959 51.1175 137.848 52.0976 137.848 53.4044C137.848 54.3192 138.502 55.0379 139.482 55.0379H150.785Z" fill="white"/>
</svg>
