<svg width="143" height="58" viewBox="0 0 143 58" fill="none" xmlns="http://www.w3.org/2000/svg">
<path d="M37.6354 43.9733C38.9422 43.9733 40.053 42.9932 40.053 41.6211C40.053 40.641 39.3996 39.9223 38.3541 39.9223H36.1326L42.4705 4.05103H44.7574C46.0642 4.05103 47.1749 3.07094 47.1749 1.69882C47.1749 0.718729 46.5215 0 45.4761 0H36.5246C35.2179 0 34.1071 0.980087 34.1071 2.35221C34.1071 3.3323 34.7605 4.05103 35.8059 4.05103H38.0274L35.3485 19.4058H12.6105L15.2894 4.05103H17.5763C18.883 4.05103 19.9938 3.07094 19.9938 1.69882C19.9938 0.718729 19.3404 0 18.295 0H9.34351C8.03673 0 6.92596 0.980087 6.92596 2.35221C6.92596 3.3323 7.57935 4.05103 8.62478 4.05103H10.8463L4.50841 39.9223H2.41755C1.11077 39.9223 0 40.9024 0 42.2745C0 43.2546 0.653392 43.9733 1.69882 43.9733H10.4543C11.7611 43.9733 12.8718 42.9932 12.8718 41.6211C12.8718 40.641 12.2184 39.9223 11.173 39.9223H8.95148L11.8917 23.4568H34.6298L31.6895 39.9223H29.5987C28.2919 39.9223 27.1811 40.9024 27.1811 42.2745C27.1811 43.2546 27.8345 43.9733 28.8799 43.9733H37.6354Z" fill="white"/>
<path d="M50.1019 36.4593C50.1019 41.1637 52.9115 44.8227 60.4909 44.8227C64.3459 44.8227 67.3515 43.7773 69.6384 41.6864C70.1611 43.4506 71.5332 44.496 73.7547 44.496C76.891 44.496 78.0018 43.4506 78.0018 42.1438C78.0018 41.1637 77.3484 40.445 76.4336 40.445C75.7803 40.445 75.4536 40.5757 75.0615 40.5757C74.0161 40.5757 73.4934 39.9876 73.7547 38.6155L77.6751 16.4002C77.8711 15.2894 77.2831 14.3093 75.9763 14.3093H71.2718C70.0304 14.3093 68.9196 15.2894 68.9196 16.5962C68.9196 17.5109 69.573 18.2296 70.5531 18.2296H73.1667L70.5531 32.931C69.769 37.178 67.8742 40.837 61.1443 40.837C55.8518 40.837 54.349 38.4848 54.349 35.3485C54.349 34.5645 54.4143 34.0417 54.6103 32.931L57.5506 16.4002C57.7466 15.224 56.9625 14.3093 55.7864 14.3093H51.082C49.8406 14.3093 48.7298 15.2894 48.7298 16.5962C48.7298 17.5109 49.3832 18.2296 50.3633 18.2296H53.0422L50.4286 32.931C50.2326 34.1071 50.1019 35.3485 50.1019 36.4593Z" fill="white"/>
<path d="M94.1778 53.1861C90.5188 53.1861 87.5132 52.0754 85.4224 50.5072C84.965 50.1805 84.6383 50.0499 84.1809 50.0499C83.1355 50.0499 82.2861 50.8993 82.2861 52.0754C82.2861 52.9248 82.8088 53.3822 83.2662 53.7742C85.7491 55.8651 89.4081 57.1065 94.0472 57.1065C101.365 57.1065 107.507 53.4475 109.075 44.5614L114.106 15.8774C114.302 14.7013 113.518 13.7866 112.342 13.7866C111.166 13.7866 110.121 14.7013 109.925 15.8774L109.729 16.9229C107.899 14.636 105.089 13.3945 101.496 13.3945C90.7802 13.3945 84.769 20.3205 84.769 32.9963C84.769 40.9677 88.82 44.8227 95.942 44.8227C100.189 44.8227 103.652 42.8625 105.547 40.837L104.893 44.5614C103.848 50.5072 99.601 53.1861 94.1778 53.1861ZM106.462 35.7406C106.462 35.7406 102.868 41.033 96.6607 41.033C91.6949 41.033 89.016 38.0928 89.016 32.3429C89.016 22.7381 93.1978 17.1842 100.842 17.1842C105.09 17.1842 108.226 19.4058 108.226 24.1102C108.226 24.8289 108.226 25.5476 108.095 26.3317L106.462 35.7406Z" fill="white"/>
<path d="M139.599 20.1898C140.122 20.7125 140.644 20.7779 140.971 20.7779C142.016 20.7779 142.866 19.9285 142.866 18.883C142.866 18.491 142.735 18.1643 142.539 17.8376C141.167 15.6161 137.508 13.4599 133.196 13.4599C126.727 13.4599 121.827 16.4002 121.827 22.6074C121.827 31.5589 136.659 29.86 136.659 35.6099C136.659 39.3342 132.934 40.7717 128.818 40.7717C125.159 40.7717 122.545 39.5956 120.846 37.5701C120.389 37.0474 119.801 36.9167 119.409 36.9167C118.364 36.9167 117.514 37.7661 117.514 38.8115C117.514 39.1382 117.58 39.4649 117.776 39.7916C119.474 42.2745 123.395 44.7574 128.426 44.7574C135.874 44.7574 140.906 41.5558 140.906 34.9565C140.906 26.201 126.139 28.1612 126.139 21.8886C126.139 18.491 129.471 17.4456 132.673 17.4456C136.071 17.4456 138.031 18.6217 139.599 20.1898Z" fill="white"/>
</svg>
