<svg width="111" height="103" viewBox="0 0 111 103" fill="none" xmlns="http://www.w3.org/2000/svg">
<path d="M46.954 95.6329L51.625 92.7484L56.9144 102.609L46.954 95.6329Z" fill="#F76940"/>
<path d="M63.2303 56.8081C57.3738 63.1684 45.1776 73.1693 34.452 79.3691C25.3581 71.6007 18.0882 63.8805 13.6919 57.0276C2.88835 40.2005 3.00779 23.2441 15.4846 12.8042C21.1332 8.0714 26.9625 5.82873 33.7647 5.82873C43.459 5.1313 52.0451 12.1066 55.4303 16.2921C59.7798 12.3302 64.4371 6.4777 76.2954 5.82873C84.6659 5.78015 89.4752 8.0714 95.1291 12.8042C107.601 23.2441 107.52 41.7135 96.7167 58.5405C89.3324 70.0513 70.0832 87.9086 53.9739 97.856" stroke="#F76940" stroke-width="11.1607"/>
<path d="M33.7647 5.82476C43.4589 5.12733 52.0451 12.1027 55.4303 16.2881C59.7798 12.3263 64.4371 6.47373 76.2953 5.82476C84.6659 5.77618 89.4752 8.06743 95.129 12.8002C107.601 23.2402 107.52 41.7095 96.7166 58.5366" stroke="#1FD0DE" stroke-width="11.1607"/>
<path d="M59.2551 21.0206C55.8699 16.8351 47.617 5.27487 33.7647 5.82475C26.9625 5.82475 21.1332 8.06741 15.4846 12.8002C3.00779 23.2401 2.88835 40.1965 13.6919 57.0236C18.0882 63.8765 25.3581 71.5967 34.452 79.3651C45.1776 73.1654 57.3738 63.1644 63.2303 56.8041" stroke="#8462AA" stroke-width="11.1607"/>
</svg>
