<svg width="64" height="64" viewBox="0 0 64 64" fill="none" xmlns="http://www.w3.org/2000/svg">
<circle cx="32" cy="32" r="32" fill="#F76940"/>
<path d="M34.2378 36.3868C32.6872 38.0213 29.458 40.5915 26.6182 42.1847C24.2104 40.1883 22.2856 38.2043 21.1216 36.4432C18.2611 32.1188 18.2012 27.3854 21.5047 24.7024C23.0002 23.4861 24.4917 23 26.2927 23C28.2781 23 31.0995 24.6419 32.2511 25.66C33.4027 24.6419 35.6921 23.1064 37.6775 23.1064C39.4785 23.1064 40.5063 23.51 42.0032 24.7263C45.3053 27.4092 45.9644 32.5077 43.1039 36.832C41.1488 39.7902 36.2494 44.3636 31.9842 46.9199" stroke="white" stroke-width="3.21844" stroke-linecap="round"/>
<path d="M39.8554 38.1675V44.4873" stroke="#F76940" stroke-width="8.0461" stroke-miterlimit="10" stroke-linecap="round" stroke-linejoin="round"/>
<path d="M43.0155 41.3274H36.6957" stroke="#F76940" stroke-width="8.0461" stroke-miterlimit="10" stroke-linecap="round" stroke-linejoin="round"/>
<path d="M39.8554 38.1675V44.4873" stroke="white" stroke-width="2.41383" stroke-miterlimit="10" stroke-linecap="round" stroke-linejoin="round"/>
<path d="M39.8554 38.1675V44.4873" stroke="url(#paint0_linear)" stroke-width="2.41383" stroke-miterlimit="10" stroke-linecap="round" stroke-linejoin="round"/>
<path d="M43.0155 41.3274H36.6957" stroke="white" stroke-width="2.41383" stroke-miterlimit="10" stroke-linecap="round" stroke-linejoin="round"/>
<path d="M43.0155 41.3274H36.6957" stroke="url(#paint1_linear)" stroke-width="2.41383" stroke-miterlimit="10" stroke-linecap="round" stroke-linejoin="round"/>
<defs>
<linearGradient id="paint0_linear" x1="40.3554" y1="38.1675" x2="40.3554" y2="44.4873" gradientUnits="userSpaceOnUse">
<stop stop-color="white"/>
<stop offset="1" stop-color="white" stop-opacity="0"/>
</linearGradient>
<linearGradient id="paint1_linear" x1="39.8556" y1="41.3274" x2="39.8556" y2="42.3274" gradientUnits="userSpaceOnUse">
<stop stop-color="white"/>
<stop offset="1" stop-color="white" stop-opacity="0"/>
</linearGradient>
</defs>
</svg>
