<svg width="22" height="32" viewBox="0 0 22 32" fill="none" xmlns="http://www.w3.org/2000/svg">
<g clip-path="url(#clip0)">
<path d="M10.6744 8.58142C11.201 8.58142 11.6279 8.15452 11.6279 7.62793C11.6279 7.10133 11.201 6.67444 10.6744 6.67444C10.1478 6.67444 9.72092 7.10133 9.72092 7.62793C9.72092 8.15452 10.1478 8.58142 10.6744 8.58142Z" fill="white"/>
<path d="M13.5349 8.58142C14.0615 8.58142 14.4884 8.15452 14.4884 7.62793C14.4884 7.10133 14.0615 6.67444 13.5349 6.67444C13.0083 6.67444 12.5814 7.10133 12.5814 7.62793C12.5814 8.15452 13.0083 8.58142 13.5349 8.58142Z" fill="white"/>
<path d="M12.1046 12.8721C14.7376 12.8721 16.8721 10.7376 16.8721 8.10466C16.8721 5.47168 14.7376 3.33722 12.1046 3.33722C9.47166 3.33722 7.3372 5.47168 7.3372 8.10466C7.3372 10.7376 9.47166 12.8721 12.1046 12.8721Z" stroke="white" stroke-linecap="round" stroke-linejoin="round"/>
<path d="M12.1046 1.43024V3.33721" stroke="white" stroke-linecap="round" stroke-linejoin="round"/>
<path d="M18.7791 8.10468H16.8721" stroke="white" stroke-linecap="round" stroke-linejoin="round"/>
<path d="M12.1046 14.779V12.8721" stroke="white" stroke-linecap="round" stroke-linejoin="round"/>
<path d="M5.43023 8.10468H7.33721" stroke="white" stroke-linecap="round" stroke-linejoin="round"/>
<path d="M17.8256 2.38373L16.8721 3.33722" stroke="white" stroke-linecap="round" stroke-linejoin="round"/>
<path d="M17.8256 13.8256L16.8721 12.8721" stroke="white" stroke-linecap="round" stroke-linejoin="round"/>
<path d="M6.38372 13.8256L7.33721 12.8721" stroke="white" stroke-linecap="round" stroke-linejoin="round"/>
<path d="M6.38372 2.38373L7.33721 3.33722" stroke="white" stroke-linecap="round" stroke-linejoin="round"/>
</g>
<path d="M5.2725 30.43C5.25917 29.5833 5.1725 28.8333 5.0125 28.18C4.8525 27.5267 4.6025 26.8833 4.2625 26.25C3.92917 25.61 3.4525 24.8333 2.8325 23.92V23.83H4.0025C4.3425 24.3433 4.62917 24.8033 4.8625 25.21C5.1025 25.6167 5.30583 26.0133 5.4725 26.4C6.06583 26.0733 6.37917 25.5533 6.4125 24.84L6.4425 23.83H7.5125L7.4525 24.74C7.4125 25.38 7.2525 25.8967 6.9725 26.29C6.69917 26.6833 6.3125 26.9967 5.8125 27.23C6.14583 28.19 6.3125 29.2567 6.3125 30.43H5.2725ZM9.06336 29V24.86H8.21336V23.83H10.0934V29H9.06336ZM11.4356 23.83H14.0956C14.5423 23.83 14.899 23.89 15.1656 24.01C15.4323 24.1233 15.6256 24.3167 15.7456 24.59C15.8723 24.8567 15.9356 25.2267 15.9356 25.7V29H14.9056V25.7C14.9056 25.3867 14.8423 25.17 14.7156 25.05C14.589 24.9233 14.3823 24.86 14.0956 24.86H12.4656V29H11.4356V23.83ZM16.8169 27.97H19.6269V25.78C19.6269 25.4267 19.5602 25.1867 19.4269 25.06C19.3002 24.9267 19.0735 24.86 18.7469 24.86H16.9269V23.83H18.7469C19.2269 23.83 19.6035 23.89 19.8769 24.01C20.1502 24.1233 20.3469 24.3233 20.4669 24.61C20.5935 24.89 20.6569 25.28 20.6569 25.78V27.97H21.2069V29H16.8169V27.97Z" fill="white"/>
<defs>
<clipPath id="clip0">
<rect width="15.2558" height="15.2558" fill="white" transform="translate(4)"/>
</clipPath>
</defs>
</svg>
