<svg width="17" height="17" viewBox="0 0 17 17" fill="none" xmlns="http://www.w3.org/2000/svg">
<path d="M11.1525 10.2959L9.51922 11.9071C8.66749 11.3935 7.87625 10.7858 7.16044 10.0953C6.471 9.37827 5.86334 8.5869 5.34863 7.73572L6.95828 6.10242C7.05577 6.00343 7.12161 5.87766 7.14742 5.74114C7.17323 5.60462 7.15785 5.4635 7.10322 5.33574L5.42492 1.42376C5.35862 1.26951 5.2391 1.14421 5.08815 1.0707C4.93721 0.997184 4.76487 0.980348 4.60255 1.02326L1.52514 1.83724C1.37146 1.87708 1.23585 1.9679 1.14051 2.09484C1.04516 2.22178 0.995728 2.37733 1.00029 2.53602C1.1961 6.11522 2.68428 9.50171 5.18843 12.0665C7.7537 14.5715 11.1411 16.0599 14.7212 16.2554C14.8801 16.2608 15.036 16.2117 15.1632 16.1164C15.2904 16.0211 15.3812 15.8853 15.4208 15.7313L16.234 12.6524C16.2771 12.4902 16.2605 12.3178 16.1871 12.1669C16.1137 12.0159 15.9885 11.8963 15.8342 11.83L11.9215 10.1525C11.7936 10.0971 11.6521 10.0811 11.5151 10.1067C11.3781 10.1322 11.2518 10.1981 11.1525 10.2959V10.2959Z" stroke="white" stroke-miterlimit="10" stroke-linecap="square"/>
</svg>
