<svg width="26" height="32" viewBox="0 0 26 32" fill="none" xmlns="http://www.w3.org/2000/svg">
<path d="M16.1525 10.2959L14.5192 11.9071C13.6675 11.3935 12.8762 10.7858 12.1604 10.0953C11.471 9.37827 10.8633 8.5869 10.3486 7.73572L11.9583 6.10242C12.0558 6.00343 12.1216 5.87766 12.1474 5.74114C12.1732 5.60462 12.1578 5.4635 12.1032 5.33574L10.4249 1.42376C10.3586 1.26951 10.2391 1.14421 10.0882 1.0707C9.93721 0.997184 9.76487 0.980348 9.60255 1.02326L6.52514 1.83724C6.37146 1.87708 6.23585 1.9679 6.14051 2.09484C6.04516 2.22178 5.99573 2.37733 6.00029 2.53602C6.1961 6.11522 7.68428 9.50171 10.1884 12.0665C12.7537 14.5715 16.1411 16.0599 19.7212 16.2554C19.8801 16.2608 20.036 16.2117 20.1632 16.1164C20.2904 16.0211 20.3812 15.8853 20.4208 15.7313L21.234 12.6524C21.2771 12.4902 21.2605 12.3178 21.1871 12.1669C21.1137 12.0159 20.9885 11.8963 20.8342 11.83L16.9215 10.1525C16.7936 10.0971 16.6521 10.0811 16.5151 10.1067C16.3781 10.1322 16.2518 10.1981 16.1525 10.2959V10.2959Z" stroke="white" stroke-miterlimit="10" stroke-linecap="square"/>
<path d="M3.30512 28.88L3.29512 28.7L4.56512 24.86H1.03512V23.83H5.71512V24.32L4.36512 28.88H3.30512ZM1.30512 30.43V26.06H2.33512V30.43H1.30512ZM7.25965 29V24.86H6.40965V23.83H8.28965V29H7.25965ZM9.63191 23.83H12.2919C12.7386 23.83 13.0952 23.89 13.3619 24.01C13.6286 24.1233 13.8219 24.3167 13.9419 24.59C14.0686 24.8567 14.1319 25.2267 14.1319 25.7V29H13.1019V25.7C13.1019 25.3867 13.0386 25.17 12.9119 25.05C12.7852 24.9233 12.5786 24.86 12.2919 24.86H10.6619V29H9.63191V23.83ZM17.7932 25.78C17.7932 25.4267 17.7265 25.1867 17.5932 25.06C17.4598 24.9267 17.2298 24.86 16.9032 24.86H15.0132V23.83H16.9032C17.3832 23.83 17.7598 23.89 18.0332 24.01C18.3065 24.1233 18.5065 24.3233 18.6332 24.61C18.7598 24.89 18.8232 25.28 18.8232 25.78V29H17.7932V25.78ZM22.8507 29.05C22.6307 29.05 22.4373 29.0367 22.2707 29.01L22.3407 27.98C22.514 28.0067 22.654 28.02 22.7607 28.02C23.214 28.0133 23.5407 27.8467 23.7407 27.52C23.9473 27.1933 24.0507 26.7867 24.0507 26.3C24.0507 25.8133 23.9373 25.44 23.7107 25.18C23.4907 24.9133 23.1907 24.78 22.8107 24.78C22.024 24.78 21.554 25.35 21.4007 26.49L21.0707 29H20.0007L20.5207 25.64C20.3407 25.0467 20.0907 24.4967 19.7707 23.99V23.83H20.8507C21.024 24.11 21.1773 24.43 21.3107 24.79C21.464 24.47 21.6873 24.2167 21.9807 24.03C22.2807 23.8433 22.6273 23.75 23.0207 23.75C23.634 23.75 24.1273 23.96 24.5007 24.38C24.8807 24.8 25.074 25.42 25.0807 26.24C25.0807 27.02 24.904 27.6833 24.5507 28.23C24.204 28.7767 23.6373 29.05 22.8507 29.05Z" fill="white"/>
</svg>
