<svg width="27" height="33" viewBox="0 0 27 33" fill="none" xmlns="http://www.w3.org/2000/svg">
<path d="M20.5298 7.43246C20.3841 7.28667 20.2112 7.17102 20.0208 7.09212C19.8304 7.01321 19.6263 6.9726 19.4202 6.9726C19.2141 6.9726 19.01 7.01321 18.8197 7.09212C18.6293 7.17102 18.4563 7.28667 18.3106 7.43246C18.165 7.57822 17.9921 7.69385 17.8018 7.77274C17.6115 7.85164 17.4075 7.89224 17.2015 7.89224C16.9955 7.89224 16.7915 7.85164 16.6011 7.77274C16.4108 7.69385 16.2379 7.57822 16.0923 7.43246C15.9467 7.2867 15.7738 7.17107 15.5835 7.09217C15.3932 7.01328 15.1892 6.97267 14.9832 6.97267C14.7772 6.97267 14.5732 7.01328 14.3829 7.09217C14.1925 7.17107 14.0196 7.2867 13.874 7.43246C13.7285 7.57822 13.5556 7.69385 13.3652 7.77274C13.1749 7.85164 12.9709 7.89224 12.7649 7.89224C12.5589 7.89224 12.3549 7.85164 12.1646 7.77274C11.9743 7.69385 11.8014 7.57822 11.6558 7.43246C11.5102 7.2867 11.3373 7.17107 11.147 7.09217C10.9566 7.01328 10.7526 6.97267 10.5466 6.97267C10.3406 6.97267 10.1366 7.01328 9.94629 7.09217C9.75598 7.17107 9.58308 7.2867 9.43748 7.43246C9.29189 7.57822 9.11899 7.69385 8.92867 7.77274C8.73836 7.85164 8.53436 7.89224 8.32834 7.89224C8.12232 7.89224 7.91832 7.85164 7.72801 7.77274C7.53769 7.69385 7.3648 7.57822 7.2192 7.43246C7.07353 7.28667 6.90055 7.17102 6.71016 7.09212C6.51977 7.01321 6.3157 6.9726 6.1096 6.9726C5.90351 6.9726 5.69943 7.01321 5.50904 7.09212C5.31865 7.17102 5.14567 7.28667 5 7.43246L10.9271 14.3244H14.6028L20.5298 7.43246Z" stroke="white" stroke-width="1.14" stroke-miterlimit="10" stroke-linecap="square"/>
<path d="M10.9272 14.3242L10.0082 17.9999H15.5218L14.6028 14.3242" stroke="white" stroke-width="1.14" stroke-miterlimit="10" stroke-linecap="square"/>
<path d="M12.1935 2.72482C13.3308 1.61895 14.8545 1.00017 16.4408 1V3.75677C16.4408 4.73163 16.0535 5.66655 15.3642 6.35588C14.6749 7.04521 13.74 7.43247 12.7651 7.43247C11.7902 7.43247 10.8553 7.04521 10.166 6.35588C9.47666 5.66655 9.0894 4.73163 9.0894 3.75677V1C10.0643 1 10.9992 1.38726 11.6885 2.07659C12.3778 2.76591 12.7651 3.70084 12.7651 4.6757" stroke="white" stroke-width="1.14" stroke-miterlimit="10"/>
<path d="M7.25125 7.43263C6.69229 7.31316 6.19699 6.9918 5.86011 6.53003C5.52324 6.06827 5.36843 5.49851 5.4253 4.92975C5.48218 4.361 5.74674 3.83318 6.16839 3.44727C6.59004 3.06135 7.13916 2.84443 7.71071 2.83801H9.0891" stroke="white" stroke-width="1.14" stroke-miterlimit="10" stroke-linecap="square"/>
<path d="M18.2787 7.43263C18.8377 7.31316 19.333 6.9918 19.6698 6.53003C20.0067 6.06827 20.1615 5.49851 20.1047 4.92975C20.0478 4.361 19.7832 3.83318 19.3616 3.44727C18.9399 3.06135 18.3908 2.84443 17.8192 2.83801H16.4409" stroke="white" stroke-width="1.14" stroke-miterlimit="10" stroke-linecap="square"/>
<path d="M0.918047 24.83H3.57805C4.02471 24.83 4.38138 24.89 4.64805 25.01C4.91471 25.1233 5.10805 25.3167 5.22805 25.59C5.35471 25.8567 5.41805 26.2267 5.41805 26.7V30H4.38805V26.7C4.38805 26.3867 4.32471 26.17 4.19805 26.05C4.07138 25.9233 3.86471 25.86 3.57805 25.86H1.94805V30H0.918047V24.83ZM7.1493 30V25.86H6.2993V24.83H8.1793V30H7.1493ZM10.5716 30V29.82L12.0616 25.86H9.12156V23.7H10.1516V24.83H13.3116V25.36L11.6816 30H10.5716ZM16.4844 30.07C15.9377 30.07 15.3477 30.04 14.7144 29.98L14.1444 24.83H15.1844L15.4244 27.22C15.871 27.1933 16.1877 27.07 16.3744 26.85C16.5677 26.63 16.6777 26.2933 16.7044 25.84L16.7644 24.83H17.8044L17.7244 25.77C17.6777 26.3033 17.5744 26.7233 17.4144 27.03C17.261 27.33 17.0344 27.5567 16.7344 27.71C16.4344 27.8633 16.031 27.9667 15.5244 28.02L15.6144 28.97C15.881 29.0233 16.211 29.05 16.6044 29.05C17.291 29.05 17.811 28.92 18.1644 28.66C18.5244 28.4 18.771 28.05 18.9044 27.61C19.0444 27.1633 19.1444 26.5633 19.2044 25.81L19.2944 24.83H20.3344L20.2244 25.99C20.1444 26.91 19.9844 27.6633 19.7444 28.25C19.511 28.8367 19.1344 29.2867 18.6144 29.6C18.0944 29.9133 17.3844 30.07 16.4844 30.07ZM24.0977 30.05C23.8777 30.05 23.6844 30.0367 23.5177 30.01L23.5877 28.98C23.7611 29.0067 23.9011 29.02 24.0077 29.02C24.4611 29.0133 24.7877 28.8467 24.9877 28.52C25.1944 28.1933 25.2977 27.7867 25.2977 27.3C25.2977 26.8133 25.1844 26.44 24.9577 26.18C24.7377 25.9133 24.4377 25.78 24.0577 25.78C23.2711 25.78 22.8011 26.35 22.6477 27.49L22.3177 30H21.2477L21.7677 26.64C21.5877 26.0467 21.3377 25.4967 21.0177 24.99V24.83H22.0977C22.2711 25.11 22.4244 25.43 22.5577 25.79C22.7111 25.47 22.9344 25.2167 23.2277 25.03C23.5277 24.8433 23.8744 24.75 24.2677 24.75C24.8811 24.75 25.3744 24.96 25.7477 25.38C26.1277 25.8 26.3211 26.42 26.3277 27.24C26.3277 28.02 26.1511 28.6833 25.7977 29.23C25.4511 29.7767 24.8844 30.05 24.0977 30.05Z" fill="white"/>
</svg>
