<svg width="18" height="19" viewBox="0 0 18 19" fill="none" xmlns="http://www.w3.org/2000/svg">
<path d="M16.5298 7.43246C16.3841 7.28667 16.2112 7.17102 16.0208 7.09212C15.8304 7.01321 15.6263 6.9726 15.4202 6.9726C15.2141 6.9726 15.01 7.01321 14.8197 7.09212C14.6293 7.17102 14.4563 7.28667 14.3106 7.43246C14.165 7.57822 13.9921 7.69385 13.8018 7.77274C13.6115 7.85164 13.4075 7.89224 13.2015 7.89224C12.9955 7.89224 12.7915 7.85164 12.6011 7.77274C12.4108 7.69385 12.2379 7.57822 12.0923 7.43246C11.9467 7.2867 11.7738 7.17107 11.5835 7.09217C11.3932 7.01328 11.1892 6.97267 10.9832 6.97267C10.7772 6.97267 10.5732 7.01328 10.3829 7.09217C10.1925 7.17107 10.0196 7.2867 9.87405 7.43246C9.72845 7.57822 9.55555 7.69385 9.36524 7.77274C9.17492 7.85164 8.97092 7.89224 8.76491 7.89224C8.55889 7.89224 8.35489 7.85164 8.16457 7.77274C7.97426 7.69385 7.80136 7.57822 7.65577 7.43246C7.51017 7.2867 7.33727 7.17107 7.14696 7.09217C6.95664 7.01328 6.75264 6.97267 6.54662 6.97267C6.34061 6.97267 6.13661 7.01328 5.94629 7.09217C5.75598 7.17107 5.58308 7.2867 5.43748 7.43246C5.29189 7.57822 5.11899 7.69385 4.92867 7.77274C4.73836 7.85164 4.53436 7.89224 4.32834 7.89224C4.12232 7.89224 3.91832 7.85164 3.72801 7.77274C3.53769 7.69385 3.3648 7.57822 3.2192 7.43246C3.07353 7.28667 2.90055 7.17102 2.71016 7.09212C2.51977 7.01321 2.3157 6.9726 2.1096 6.9726C1.90351 6.9726 1.69943 7.01321 1.50904 7.09212C1.31865 7.17102 1.14567 7.28667 1 7.43246L6.92706 14.3244H10.6028L16.5298 7.43246Z" stroke="white" stroke-width="1.14" stroke-miterlimit="10" stroke-linecap="square"/>
<path d="M6.92715 14.3242L6.00823 17.9999H11.5218L10.6028 14.3242" stroke="white" stroke-width="1.14" stroke-miterlimit="10" stroke-linecap="square"/>
<path d="M8.19353 2.72482C9.3308 1.61895 10.8545 1.00017 12.4408 1V3.75677C12.4408 4.73163 12.0535 5.66655 11.3642 6.35588C10.6749 7.04521 9.73995 7.43247 8.7651 7.43247C7.79024 7.43247 6.85532 7.04521 6.16599 6.35588C5.47666 5.66655 5.0894 4.73163 5.0894 3.75677V1C6.06426 1 6.99919 1.38726 7.68851 2.07659C8.37784 2.76591 8.7651 3.70084 8.7651 4.6757" stroke="white" stroke-width="1.14" stroke-miterlimit="10"/>
<path d="M3.25125 7.43263C2.69229 7.31316 2.19699 6.9918 1.86011 6.53003C1.52324 6.06827 1.36843 5.49851 1.4253 4.92975C1.48218 4.361 1.74674 3.83318 2.16839 3.44727C2.59004 3.06135 3.13916 2.84443 3.71071 2.83801H5.0891" stroke="white" stroke-width="1.14" stroke-miterlimit="10" stroke-linecap="square"/>
<path d="M14.2787 7.43263C14.8377 7.31316 15.333 6.9918 15.6698 6.53003C16.0067 6.06827 16.1615 5.49851 16.1047 4.92975C16.0478 4.361 15.7832 3.83318 15.3616 3.44727C14.9399 3.06135 14.3908 2.84443 13.8192 2.83801H12.4409" stroke="white" stroke-width="1.14" stroke-miterlimit="10" stroke-linecap="square"/>
</svg>
